# xmcd
#
# Track frame offsets: 
#        150
#        32642
#        63962
#        91215
#        112827
#        147900
#        165547
#
# Disc length: 2448 seconds
#
# Revision: 2
# Processed by: cddbd v1.5.2PL0 Copyright (c) Steve Scherf et al.
# Submitted via: ExactAudioCopyFreeDBPlugin 1.0
#
DISCID=4f098e07
DTITLE=Barry White - Barry White Sings For Someone You Love
DYEAR=1977
DGENRE=Soul
TTITLE0=Playing Your Game, Baby
TTITLE1=It's Ecstasy When You Lay Down Next To Me
TTITLE2=You're So Good You're Bad
TTITLE3=I Never Thought I'd Fall In Love With You
TTITLE4=You Turned My Whole World Around
TTITLE5=Oh What A Night For Dancing
TTITLE6=Of All The Guys In The World
EXTD=
EXTT0=
EXTT1=
EXTT2=
EXTT3=
EXTT4=
EXTT5=
EXTT6=
PLAYORDER=
